<svg width="30" height="30" viewBox="0 0 30 30" fill="none" xmlns="http://www.w3.org/2000/svg">
<path d="M25 12.75C25 10.0978 23.9464 7.5543 22.0711 5.67893C20.1957 3.80357 17.6522 2.75 15 2.75C12.3478 2.75 9.8043 3.80357 7.92893 5.67893C6.05357 7.5543 5 10.0978 5 12.75" stroke="white" stroke-width="2" stroke-linecap="round" stroke-linejoin="round"/>
<path d="M25 21.5002V22.1252C25 22.7882 23.7366 24.4241 23.2678 24.8929C22.7989 25.3618 22.163 25.6252 21.5 25.6252H17.125M2.5 18.2977V15.9527C2.50008 15.3952 2.6865 14.8537 3.02963 14.4143C3.37276 13.975 3.8529 13.6629 4.39375 13.5277L6.56875 12.9827C6.67927 12.9552 6.79461 12.9532 6.90601 12.9769C7.01742 13.0005 7.12196 13.0493 7.21172 13.1194C7.30147 13.1895 7.37408 13.2792 7.42403 13.3815C7.47398 13.4839 7.49996 13.5963 7.5 13.7102V20.5389C7.5002 20.6531 7.47434 20.7657 7.4244 20.8684C7.37446 20.971 7.30176 21.0609 7.21183 21.1312C7.12189 21.2015 7.01711 21.2503 6.90545 21.2739C6.79379 21.2976 6.67821 21.2955 6.5675 21.2677L4.3925 20.7239C3.85188 20.5885 3.37202 20.2763 3.02914 19.8369C2.68626 19.3976 2.50001 18.8563 2.5 18.2989V18.2977ZM27.5 18.2977V15.9527C27.4999 15.3952 27.3135 14.8537 26.9704 14.4143C26.6272 13.975 26.1471 13.6629 25.6063 13.5277L23.4313 12.9827C23.3207 12.9552 23.2054 12.9532 23.094 12.9769C22.9826 13.0005 22.878 13.0493 22.7883 13.1194C22.6985 13.1895 22.6259 13.2792 22.576 13.3815C22.526 13.4839 22.5 13.5963 22.5 13.7102V20.5389C22.4999 20.6529 22.5257 20.7655 22.5756 20.868C22.6254 20.9705 22.698 21.0603 22.7878 21.1306C22.8776 21.2008 22.9822 21.2497 23.0937 21.2734C23.2052 21.2972 23.3206 21.2952 23.4313 21.2677L25.6063 20.7239C26.1471 20.5887 26.6272 20.2767 26.9704 19.8373C27.3135 19.3979 27.4999 18.8564 27.5 18.2989V18.2977Z" stroke="white" stroke-width="2"/>
<path d="M16.75 27H14.25C13.9185 27 13.6005 26.842 13.3661 26.5607C13.1317 26.2794 13 25.8978 13 25.5C13 25.1022 13.1317 24.7206 13.3661 24.4393C13.6005 24.158 13.9185 24 14.25 24H16.75C17.0815 24 17.3995 24.158 17.6339 24.4393C17.8683 24.7206 18 25.1022 18 25.5C18 25.8978 17.8683 26.2794 17.6339 26.5607C17.3995 26.842 17.0815 27 16.75 27Z" stroke="white" stroke-width="2"/>
</svg>
