<svg width="142" height="66" viewBox="0 0 142 66" fill="none" xmlns="http://www.w3.org/2000/svg">
<path d="M53.4863 29.5212C53.4731 30.9432 53.0748 32.0986 51.3493 32.1065H51.3475C49.6246 32.0986 49.2219 30.9432 49.2096 29.5212V19.2458H47.3086V29.5247C47.3139 31.8152 48.5973 33.6215 51.3475 33.625H51.3493C54.0986 33.6215 55.3829 31.8152 55.3864 29.5247V19.2458H53.4863V29.5212Z" fill="black"/>
<path d="M17.9009 25.2702H13.6338V19.2513H11.7363V33.5068H13.6338V26.8598H17.9009V33.5068H19.7993V19.2513H17.9009V25.2702Z" fill="black"/>
<path d="M73.2546 29.4161L69.4622 19.2495H66.6348V33.5059H68.4937V21.4628L73.073 33.5059H75.1074V19.2495H73.2546V29.4161Z" fill="black"/>
<path d="M33.5076 25.2971L30.9758 19.2484H29.002L32.5514 27.4797L32.5452 33.5039H34.4392V27.4525L37.9413 19.2484H35.9604L33.5076 25.2971Z" fill="black"/>
<path d="M128.479 33.5049H130.316V19.2494H128.479V33.5049Z" fill="black"/>
<path d="M90.7799 20.8201H89.9746V31.9131H90.7799C93.1319 31.8938 94.4337 31.1964 94.453 26.3749C94.4364 21.5535 93.1319 20.8368 90.7799 20.8201Z" fill="black"/>
<path d="M141.123 44.405H102.362V7.87659H141.123V44.405ZM0.877263 7.87747H81.8662V44.4058H0.877263V7.87747ZM94.9392 31.9794C94.0461 33.09 92.7461 33.505 91.1547 33.505H88.1229V19.2494H91.1494C92.7408 19.2494 94.0435 19.6635 94.9392 20.7741C95.8314 21.8812 96.3095 23.6612 96.3095 26.3754C96.3095 29.0906 95.8314 30.8714 94.9392 31.9794M102.362 7.0002H101.993H82.2434H81.868H0V45.2822H81.868H82.2434H101.993H102.362H142V7.0002H102.362Z" fill="black"/>
<path d="M110.323 27.8832L111.914 20.7414L113.51 27.8832H110.323ZM110.645 19.25L110.634 19.3097L107.244 33.4933H109.155L110.051 29.4903H113.79L114.689 33.4941H116.595L113.221 19.25H110.645Z" fill="black"/>
<path d="M65.8513 55.3255L64.8898 51.9121L63.9012 55.3255H65.8513ZM65.4118 51.1804L67.4883 58.1494H66.6374L66.0443 56.0054H63.7029L63.095 58.1494H62.3379L64.4346 51.1804H65.4118Z" fill="black"/>
<path d="M33.0967 51.8823V54.4834H33.7652C34.3214 54.4834 34.6609 54.372 34.9004 54.129C35.1092 53.9141 35.2197 53.5377 35.2197 53.0816C35.2197 52.6245 34.9644 52.1894 34.6074 52.0245C34.4047 51.9341 34.1582 51.8823 33.8196 51.8823H33.0967ZM32.3379 51.1814H33.8038C34.6609 51.1814 35.0837 51.3542 35.382 51.6288C35.6697 51.8823 36.0049 52.3499 36.0049 53.0921C36.0049 54.2404 35.3408 55.0028 34.3407 55.0028H34.2477C34.5407 55.2642 34.7548 55.5905 34.8802 55.7818C35.146 56.1774 36.3277 58.1504 36.3277 58.1504H35.382C35.1995 57.6925 34.6144 56.6248 33.7827 55.4475C33.5354 55.1037 33.3994 55.0107 33.0862 55.0028V58.1504H32.3379V51.1814Z" fill="black"/>
<path d="M39.9082 51.1831H43.3401L43.2392 51.8735H40.6679V54.1596H42.8172V54.8807H40.6679V57.4283H43.4322V58.1494H39.9082V51.1831Z" fill="black"/>
<path d="M93.3611 55.3255L92.3996 51.9121L91.4101 55.3255H93.3611ZM92.9216 51.1804L94.9981 58.1494H94.1471L93.5541 56.0054H91.2127L90.6047 58.1494H89.8477L91.9443 51.1804H92.9216Z" fill="black"/>
<path d="M99.3291 51.8823V54.4834H99.9976C100.554 54.4834 100.893 54.372 101.133 54.129C101.342 53.9141 101.452 53.5377 101.452 53.0816C101.452 52.6245 101.197 52.1894 100.84 52.0245C100.637 51.9341 100.391 51.8823 100.052 51.8823H99.3291ZM98.5703 51.1814H100.036C100.893 51.1814 101.316 51.3542 101.614 51.6288C101.902 51.8823 102.237 52.3499 102.237 53.0921C102.237 54.2404 101.573 55.0028 100.573 55.0028H100.48C100.773 55.2642 100.987 55.5905 101.113 55.7818C101.378 56.1774 102.56 58.1504 102.56 58.1504H101.614C101.432 57.6925 100.847 56.6248 100.015 55.4475C99.7678 55.1037 99.6318 55.0107 99.3186 55.0028V58.1504H98.5703V51.1814Z" fill="black"/>
<path d="M106.143 51.1831H109.574L109.474 51.8735H106.902V54.1596H109.052V54.8807H106.902V57.4283H109.667V58.1494H106.143V51.1831Z" fill="black"/>
<path d="M47.4531 51.1831H48.3207L50.4077 55.6325C50.7376 56.3212 50.9938 57.0941 50.9938 57.0941C50.9938 57.0941 50.9201 55.9773 50.9104 54.9711L50.8832 51.1831H51.6263V58.1494H50.8367L48.826 53.885C48.4216 53.042 48.1111 52.2095 48.1111 52.2095C48.1111 52.2095 48.1848 53.2052 48.1953 54.1096L48.2313 58.1494H47.4531V51.1831Z" fill="black"/>
<path d="M55.3262 51.1831H59.4783L59.4353 51.884H57.7325V58.1494H57.0096V51.884H55.3262V51.1831Z" fill="black"/>
<path d="M71.3086 58.1494V51.1673H72.0236V57.3239H74.694L74.6817 58.1494H71.3086Z" fill="black"/>
<path d="M71.3086 58.1494V51.1673H72.0236V57.3239H74.694L74.6817 58.1494H71.3086Z" fill="black"/>
<path d="M85.7526 55.658L86.3738 55.8878C86.2465 56.6019 86.022 57.1537 85.6939 57.5441C85.3517 57.9468 84.9298 58.1494 84.4253 58.1494C83.4577 58.1494 82.8033 57.5704 82.462 56.4098C82.2971 55.8466 82.2129 55.2413 82.2129 54.5956C82.2129 53.1394 82.5726 52.1288 83.2937 51.5612C83.6393 51.2875 84.0183 51.1497 84.4359 51.1497C84.8991 51.1497 85.2947 51.3199 85.6184 51.6568C85.9421 51.9963 86.1685 52.4832 86.2957 53.1183L85.6816 53.3297C85.4737 52.3884 85.0517 51.9191 84.4201 51.9191C83.6902 51.9191 83.2165 52.3788 83.0007 53.2938C82.9033 53.7131 82.8542 54.1465 82.8542 54.5956C82.8542 55.8255 83.0945 56.6484 83.5735 57.0634C83.8209 57.2739 84.0876 57.3801 84.3727 57.3801C85.1184 57.3801 85.5807 56.8063 85.7526 55.658" fill="black"/>
<path d="M85.7526 55.658L86.3738 55.8878C86.2465 56.6019 86.022 57.1537 85.6939 57.5441C85.3517 57.9468 84.9298 58.1494 84.4253 58.1494C83.4577 58.1494 82.8033 57.5704 82.462 56.4098C82.2971 55.8466 82.2129 55.2413 82.2129 54.5956C82.2129 53.1394 82.5726 52.1288 83.2937 51.5612C83.6393 51.2875 84.0183 51.1497 84.4359 51.1497C84.8991 51.1497 85.2947 51.3199 85.6184 51.6568C85.9421 51.9963 86.1685 52.4832 86.2957 53.1183L85.6816 53.3297C85.4737 52.3884 85.0517 51.9191 84.4201 51.9191C83.6902 51.9191 83.2165 52.3788 83.0007 53.2938C82.9033 53.7131 82.8542 54.1465 82.8542 54.5956C82.8542 55.8255 83.0945 56.6484 83.5735 57.0634C83.8209 57.2739 84.0876 57.3801 84.3727 57.3801C85.1184 57.3801 85.5807 56.8063 85.7526 55.658" fill="black"/>
</svg>
