<svg width="30" height="30" viewBox="0 0 30 30" fill="none" xmlns="http://www.w3.org/2000/svg">
<path d="M15 14C18.3137 14 21 11.3137 21 8C21 4.68629 18.3137 2 15 2C11.6863 2 9 4.68629 9 8C9 11.3137 11.6863 14 15 14Z" stroke="white" stroke-width="2" stroke-miterlimit="10"/>
<path d="M3 27C3.002 24.8708 3.56257 22.7804 4.62428 20.9429C5.68599 19.1055 7.21069 17.587 9.0422 16.543C10.8737 15.499 12.9462 14.967 15.0474 15.0016C17.1486 15.0362 19.2029 15.636 21 16.7397" stroke="white" stroke-width="2" stroke-linecap="round" stroke-linejoin="round"/>
<path d="M14 28V22H15.2002L17.8693 26.2343H17.2334L19.8577 22H21.0489L21.0668 28H19.7054L19.6965 23.9971H19.9472L17.8514 27.3657H17.1975L15.0569 23.9971H15.3614V28H14Z" fill="white"/>
<path d="M24.1128 28V25.5486L24.4442 26.3886L21.6855 22H23.2261L25.3399 25.3686H24.4532L26.5759 22H28L25.2413 26.3886L25.5638 25.5486V28H24.1128Z" fill="white"/>
</svg>
