<svg width="40" height="40" viewBox="0 0 40 40" fill="none" xmlns="http://www.w3.org/2000/svg">
<circle cx="20" cy="20" r="19.5" stroke="white"/>
<path d="M14.365 18.6426C13.9847 18.6426 13.6759 18.9422 13.6759 19.3111C13.6759 19.6801 13.9847 19.9797 14.365 19.9797C14.7453 19.9797 15.0541 19.6801 15.0541 19.3111C15.0541 18.9422 14.7453 18.6426 14.365 18.6426Z" fill="white"/>
<path d="M21.1687 20.0109C21.5783 20.0109 21.9104 19.6888 21.9104 19.2914C21.9104 18.8939 21.5783 18.5718 21.1687 18.5718C20.7591 18.5718 20.427 18.8939 20.427 19.2914C20.427 19.6888 20.7591 20.0109 21.1687 20.0109Z" fill="white"/>
<path d="M27.3272 12H12.6755C11.1975 12 10 13.1618 10 14.5957V23.0318C10 24.4658 11.1975 25.6276 12.6755 25.6276H17.8498L19.6096 29.6507C19.6096 29.6507 19.731 30 20.0236 30C20.3162 30 20.4376 29.6507 20.4376 29.6507L22.1974 25.6276H27.3245C28.8025 25.6276 30 24.4658 30 23.0318V14.5957C30.0027 13.1618 28.8052 12 27.3272 12ZM16.2841 19.4575C16.276 21 14.6322 21.0432 14.6322 21.0432C13.997 21.0432 13.637 20.635 13.637 20.635V20.9123H12.4408V16.1239C12.4354 16.1225 12.4354 16.1225 12.4408 16.1212V16.1239C12.515 16.1356 13.6383 16.1212 13.6383 16.1212V17.9529C13.9202 17.4871 14.7333 17.495 14.7333 17.495C16.5066 17.6546 16.2841 19.4575 16.2841 19.4575ZM18.3919 17.6415V20.9202H17.22V17.6755C17.22 17.2333 16.655 17.1116 16.655 17.1116V15.9669C18.5267 16.0401 18.3919 17.6415 18.3919 17.6415ZM21.1685 21.0458C20.0843 21.0458 19.205 20.2608 19.205 19.2913C19.205 18.3218 20.0843 17.5369 21.1685 17.5369C22.2527 17.5369 23.132 18.3218 23.132 19.2913C23.132 20.2608 22.2527 21.0458 21.1685 21.0458ZM27.5861 21.0458C27.5861 21.0458 27.6023 22.7113 25.8587 22.7113H25.3274V21.6319H25.6483C25.6483 21.6319 26.3819 21.6973 26.3738 20.601C26.3738 20.601 26.2309 21.0445 25.2019 21.0445C25.2019 21.0445 23.7442 20.9424 23.7442 19.5621V19.0388C23.7442 19.0388 23.7779 17.6075 25.3786 17.4937C25.3786 17.4937 26.0111 17.4283 26.3981 17.9359V17.584H27.5861V21.0458Z" fill="white"/>
<path d="M25.7239 19.9952C26.1246 19.9952 26.4494 19.68 26.4494 19.2913C26.4494 18.9025 26.1246 18.5874 25.7239 18.5874C25.3232 18.5874 24.9984 18.9025 24.9984 19.2913C24.9984 19.68 25.3232 19.9952 25.7239 19.9952Z" fill="white"/>
</svg>
