<svg width="30" height="30" viewBox="0 0 30 30" fill="none" xmlns="http://www.w3.org/2000/svg">
<path d="M3 3H5.66667L6.2 5.66667M6.2 5.66667H27L21.6667 16.3333H8.33333M6.2 5.66667L8.33333 16.3333M8.33333 16.3333L5.276 19.3907C4.436 20.2307 5.03067 21.6667 6.21867 21.6667H21.6667M21.6667 21.6667C20.9594 21.6667 20.2811 21.9476 19.781 22.4477C19.281 22.9478 19 23.6261 19 24.3333C19 25.0406 19.281 25.7189 19.781 26.219C20.2811 26.719 20.9594 27 21.6667 27C22.3739 27 23.0522 26.719 23.5523 26.219C24.0524 25.7189 24.3333 25.0406 24.3333 24.3333C24.3333 23.6261 24.0524 22.9478 23.5523 22.4477C23.0522 21.9476 22.3739 21.6667 21.6667 21.6667ZM11 24.3333C11 25.0406 10.719 25.7189 10.219 26.219C9.71885 26.719 9.04058 27 8.33333 27C7.62609 27 6.94781 26.719 6.44772 26.219C5.94762 25.7189 5.66667 25.0406 5.66667 24.3333C5.66667 23.6261 5.94762 22.9478 6.44772 22.4477C6.94781 21.9476 7.62609 21.6667 8.33333 21.6667C9.04058 21.6667 9.71885 21.9476 10.219 22.4477C10.719 22.9478 11 23.6261 11 24.3333Z" stroke="white" stroke-width="2" stroke-linecap="round" stroke-linejoin="round"/>
</svg>
