<svg width="142" height="66" viewBox="0 0 142 66" fill="none" xmlns="http://www.w3.org/2000/svg">
<path d="M106.791 14.0888C107.069 14.0888 107.305 13.8583 107.305 13.5738C107.305 13.2908 107.077 13.0621 106.794 13.0605H105.23V12.5444C105.23 12.3977 105.18 12.2697 105.078 12.1652C104.977 12.0556 104.842 12 104.681 12C104.538 12 104.409 12.0576 104.313 12.1654C104.218 12.2697 104.169 12.3972 104.169 12.5444V13.0605H102.693C102.41 13.0621 102.182 13.2908 102.182 13.5738C102.182 13.8583 102.412 14.0888 102.698 14.0888H106.791Z" fill="black"/>
<path d="M80.1741 25.9863C77.538 25.9863 75.1955 27.2462 73.7003 29.1923C72.2048 27.2462 69.8623 25.9863 67.2241 25.9863C62.7186 25.9863 59.0508 29.6541 59.0508 34.1606V44.8547C59.0508 45.791 59.8144 46.5541 60.7512 46.5541C61.6859 46.5541 62.4475 45.791 62.4475 44.8547V34.1606C62.4475 31.5256 64.5911 29.3835 67.2241 29.3835C69.8582 29.3835 71.9998 31.5256 71.9998 34.1606V44.8547C71.9998 45.791 72.7613 46.5541 73.6991 46.5541H73.7003C74.6369 46.5541 75.3986 45.791 75.3986 44.8547V34.1606C75.3986 31.5256 77.54 29.3835 80.1741 29.3835C82.8083 29.3835 84.9497 31.5256 84.9497 34.1606V44.8547C84.9497 45.791 85.7123 46.5541 86.6491 46.5541C87.586 46.5541 88.3474 45.791 88.3474 44.8547V34.1606C88.3474 29.6541 84.6827 25.9863 80.1741 25.9863Z" fill="black"/>
<path d="M108.013 25.9863C103.056 25.9863 99.0234 30.0208 99.0234 34.979V44.8259C99.0234 45.7786 99.7985 46.5541 100.751 46.5541C101.702 46.5541 102.476 45.7786 102.476 44.8259V34.979C102.476 31.9233 104.959 29.4398 108.013 29.4398C111.067 29.4398 113.551 31.9233 113.551 34.979V44.8259C113.551 45.7786 114.325 46.5541 115.278 46.5541C116.23 46.5541 117.005 45.7786 117.005 44.8259V34.979C117.005 30.0208 112.972 25.9863 108.013 25.9863Z" fill="black"/>
<path d="M54.3066 27.5215C53.3554 27.5215 52.5805 28.2954 52.5805 29.2488V39.0952C52.5805 42.1514 50.0978 44.6355 47.0433 44.6355C43.9907 44.6355 41.5061 42.1514 41.5061 39.0952V29.2488C41.5061 28.2954 40.731 27.5215 39.7788 27.5215C38.8266 27.5215 38.0527 28.2954 38.0527 29.2488V39.0952C38.0527 44.0548 42.0853 48.0889 47.0433 48.0889C52.0003 48.0889 56.0327 44.0548 56.0327 39.0952V29.2488C56.0327 28.2954 55.2588 27.5215 54.3066 27.5215Z" fill="black"/>
<path d="M93.6079 17.6982C92.1939 17.6982 91.0449 18.8498 91.0449 20.2633C91.0449 21.6771 92.1939 22.8272 93.6079 22.8272C95.0219 22.8272 96.173 21.6771 96.173 20.2633C96.173 18.8498 95.0219 17.6982 93.6079 17.6982Z" fill="black"/>
<path d="M95.4158 27.6825C95.4158 26.7478 94.6563 25.9883 93.7225 25.9883C92.7878 25.9883 92.0273 26.7478 92.0273 27.6825V44.8598C92.0273 45.7925 92.7878 46.554 93.7225 46.554C94.6563 46.554 95.4158 45.7925 95.4158 44.8598V27.6825Z" fill="black"/>
<path d="M130.327 43.1566C126.617 43.4389 123.322 40.5883 122.982 36.8042C122.772 32.9984 125.618 29.6836 129.327 29.4028C133.039 29.1225 136.333 31.9725 136.672 35.755C136.885 39.5609 134.039 42.8767 130.327 43.1566ZM126.237 53.5343C127.657 54.0218 129.02 54.2897 130.294 54.3288C131.413 54.3648 132.566 54.2133 133.693 53.8847C134.822 53.5537 135.844 53.0535 136.732 52.3976C137.621 51.7421 138.37 50.9126 138.952 49.9355C139.526 48.9607 139.837 47.8301 139.874 46.5713L140.001 36.1555C140.001 35.9489 139.997 35.7418 139.985 35.5335L139.981 35.4887C139.498 29.852 134.609 25.6061 129.082 26.0257C123.555 26.4435 119.333 31.3773 119.669 37.0247L119.673 37.0705C120.157 42.7083 125.045 46.9541 130.573 46.5368C132.58 46.3842 134.482 45.6294 136.074 44.3551L136.656 43.8892L136.57 46.6969C136.549 47.4394 136.347 48.1114 135.97 48.6897C135.61 49.2491 135.135 49.7129 134.563 50.0644C134.011 50.4045 133.36 50.6647 132.622 50.8373C131.903 51.0058 131.143 51.0811 130.393 51.0562C129.47 51.0269 128.472 50.8517 127.426 50.5354C126.369 50.2118 125.38 49.6429 124.49 48.8447C124.18 48.5608 123.781 48.4036 123.297 48.3763L123.238 48.3743C123.184 48.3712 123.122 48.3731 123.063 48.3779C122.693 48.4057 122.371 48.555 122.079 48.8328C121.742 49.1595 121.593 49.5141 121.629 49.9123C121.662 50.3405 121.816 50.695 122.092 50.9713C123.436 52.1867 124.833 53.0514 126.237 53.5343Z" fill="black"/>
<path d="M24.5662 45.1281C22.7726 46.0962 20.7218 46.6468 18.5447 46.6468C15.0848 46.6468 11.945 45.2567 9.64932 43.0078C9.63345 43.0129 9.61693 43.0161 9.6009 43.0214C9.38972 43.0884 9.17837 43.1594 8.97029 43.2357C8.81456 43.2924 8.659 43.349 8.50442 43.4109C8.40758 43.449 8.31074 43.4882 8.21488 43.5283C7.95724 43.6355 7.70058 43.7478 7.44817 43.8674C7.44703 43.8674 7.44703 43.8674 7.44605 43.8684C6.96905 44.0956 6.41843 44.4049 5.96875 44.6724C9.0035 48.2205 13.5097 50.4722 18.5447 50.4722C21.9033 50.4722 25.0262 49.4688 27.6355 47.7492C26.7147 46.7507 25.6819 45.8767 24.5662 45.1281Z" fill="black"/>
<path d="M7.40708 39.5211C7.3284 39.5508 7.25004 39.584 7.17103 39.6145C6.97883 39.6882 6.78613 39.7614 6.59605 39.8417C6.30046 39.9632 6.0065 40.092 5.71598 40.2313C5.05152 40.547 4.35679 40.9293 3.73633 41.3079C3.74189 41.319 3.74761 41.3298 3.75318 41.3409C4.35221 42.5334 5.09078 43.643 5.94794 44.649C5.95465 44.6568 5.96135 44.6644 5.9679 44.6719C6.41758 44.4046 6.96836 44.0951 7.44536 43.8679C7.44618 43.8671 7.44618 43.8671 7.44748 43.8671C7.69973 43.7475 7.95639 43.6351 8.21402 43.5278C8.31005 43.4877 8.40689 43.4485 8.50373 43.4104C8.65815 43.3487 8.81387 43.2919 8.9696 43.2353C9.17751 43.1589 9.38903 43.0879 9.60021 43.021C9.61624 43.0158 9.6326 43.0125 9.64863 43.0075C11.3333 42.4722 13.0881 42.1933 14.8942 42.1933C18.4292 42.1933 21.7664 43.2497 24.5654 45.1278C25.6812 45.8762 26.714 46.7504 27.6348 47.7487C28.7418 48.949 29.6938 50.3177 30.4483 51.8353C30.8008 52.5432 31.5128 52.9523 32.2529 52.9523C32.5548 52.9523 32.8598 52.8843 33.1485 52.7422C34.1439 52.2463 34.5489 51.0386 34.0542 50.0432C33.1521 48.2283 32.0216 46.585 30.7088 45.1378C29.8443 44.1844 28.8939 43.3256 27.8827 42.5514C24.231 39.7555 19.7111 38.166 14.8942 38.166C12.3032 38.166 9.79405 38.6268 7.40708 39.5211Z" fill="black"/>
<path d="M30.7048 45.1347C33.4252 42.1868 35.0922 38.2527 35.0922 33.9251C35.0922 24.7869 27.6841 17.3789 18.546 17.3789C9.40792 17.3789 2 24.7869 2 33.9251C2 35.7919 2.31375 37.5844 2.88366 39.2585C3.94072 38.6543 5.06665 38.1226 6.20468 37.7066C6.26013 37.6873 6.32622 37.6659 6.38151 37.6451C6.02082 36.4678 5.82534 35.2189 5.82534 33.9251C5.82534 26.9108 11.5318 21.2044 18.546 21.2044C25.5604 21.2044 31.2667 26.9108 31.2667 33.9251C31.2667 37.2522 29.9807 40.2829 27.8817 42.5516L27.8822 42.5519C28.8922 43.3253 29.8411 44.183 30.7048 45.1347Z" fill="black"/>
<path d="M119.262 12.373C118.924 12.373 118.649 12.6482 118.649 12.9858V15.8722H117.515V12.9858C117.515 12.6482 117.239 12.373 116.901 12.373C116.564 12.373 116.288 12.6482 116.288 12.9858V16.6958C116.258 16.8447 116.208 16.9685 116.142 17.0649C115.997 17.2616 115.747 17.4095 115.392 17.5078C114.991 17.6132 114.516 17.6395 113.963 17.5865C113.602 17.5535 113.422 17.3469 113.422 16.9656V14.0986H114.969H115.256C115.552 14.0972 115.79 13.858 115.79 13.5623C115.79 13.2652 115.551 13.0249 115.252 13.0249H114.969H112.773C112.428 13.0316 112.15 13.3146 112.15 13.666V16.9952C112.15 18.1388 112.702 18.7105 113.805 18.7105C114.633 18.7105 115.29 18.6014 115.776 18.3851C115.975 18.2951 116.144 18.1739 116.288 18.0228V21.3363C116.288 21.6744 116.564 21.9487 116.901 21.9487C117.239 21.9487 117.515 21.6744 117.515 21.3363V17.0657H118.649V21.3363C118.649 21.6744 118.924 21.9487 119.262 21.9487C119.6 21.9487 119.876 21.6744 119.876 21.3363V12.9858C119.876 12.6482 119.6 12.373 119.262 12.373Z" fill="black"/>
<path d="M103.829 16.205C103.829 15.7566 104.217 15.3951 104.698 15.3951C105.179 15.3951 105.57 15.7566 105.57 16.205C105.57 16.6535 105.179 17.018 104.698 17.018C104.217 17.018 103.829 16.6535 103.829 16.205ZM106.73 16.205C106.73 15.161 105.821 14.3145 104.698 14.3145C103.578 14.3145 102.672 15.161 102.672 16.205C102.672 17.2516 103.578 18.0989 104.698 18.0989C105.821 18.0989 106.73 17.2516 106.73 16.205Z" fill="black"/>
<path d="M107.173 14.6734C107.063 14.7747 107.008 14.9095 107.008 15.0722C107.008 15.2152 107.066 15.3423 107.174 15.4393C107.277 15.5348 107.406 15.5829 107.553 15.5829H108.511V16.1123H107.553C107.406 16.1123 107.277 16.1633 107.173 16.2634C107.063 16.3655 107.008 16.5 107.008 16.6631C107.008 16.8052 107.066 16.9331 107.174 17.0296C107.277 17.1257 107.406 17.1734 107.553 17.1734H108.511V18.7361C108.511 19.0738 108.786 19.3487 109.124 19.3487C109.462 19.3487 109.738 19.0738 109.738 18.7361V12.9596C109.738 12.6215 109.462 12.3467 109.124 12.3467C108.786 12.3467 108.511 12.6215 108.511 12.9596V14.522H107.553C107.406 14.522 107.277 14.5733 107.173 14.6734Z" fill="black"/>
<path d="M109.346 20.2682H105.524C105.342 20.2682 105.213 20.2208 105.132 20.124C105.052 20.0221 105.013 19.9108 105.013 19.7845V19.1829C105.013 18.8214 104.72 18.5273 104.359 18.5273C103.997 18.5273 103.703 18.8214 103.703 19.1829V20.0826C103.703 20.5038 103.869 20.8544 104.196 21.1248C104.521 21.3929 104.925 21.5288 105.397 21.5288H109.346C109.694 21.5288 109.977 21.2466 109.977 20.9002C109.977 20.5519 109.694 20.2682 109.346 20.2682Z" fill="black"/>
<path d="M136.573 21.0281C135.975 21.0281 135.494 20.5433 135.494 19.946C135.494 19.3485 135.975 18.8666 136.573 18.8666C137.172 18.8666 137.656 19.3485 137.656 19.946C137.656 20.5433 137.172 21.0281 136.573 21.0281ZM138.829 19.9395V12.9868C138.829 12.649 138.555 12.374 138.215 12.374C137.878 12.374 137.602 12.649 137.602 12.9868V17.9436C137.294 17.7855 136.945 17.6956 136.573 17.6956C135.331 17.6956 134.324 18.7033 134.324 19.946C134.324 21.1919 135.331 22.1995 136.573 22.1995C137.82 22.1995 138.829 21.1919 138.829 19.946V19.9395Z" fill="black"/>
<path d="M135.111 16.241H133.384C133.18 16.241 133.035 16.1842 132.94 16.0712C132.85 15.9564 132.808 15.8314 132.808 15.6915V13.8323H135.111V16.241ZM136.292 16.7332V13.3446C136.292 12.9934 136.014 12.7104 135.669 12.7031H132.25C131.904 12.7104 131.627 12.9934 131.627 13.3446V15.9887C131.627 16.39 131.782 16.7214 132.097 16.9805C132.411 17.2398 132.799 17.37 133.255 17.37H135.667C136.012 17.3631 136.292 17.0815 136.292 16.7332Z" fill="black"/>
<path d="M130.191 17.3954H128.492C128.854 16.6249 128.958 15.4226 128.986 14.7475C128.995 14.5543 129.001 14.3628 129.001 14.1793C129.001 13.7489 128.831 13.3905 128.497 13.1155C128.166 12.8417 127.756 12.7031 127.278 12.7031H123.454C123.296 12.7031 123.15 12.7509 123.003 12.8516C122.859 12.9576 122.785 13.0942 122.785 13.2619C122.785 13.4534 122.853 13.6108 122.991 13.7314C123.125 13.8457 123.28 13.9043 123.454 13.9043H127.251C127.424 13.9043 127.546 13.9486 127.621 14.0376C127.697 14.1341 127.734 14.239 127.734 14.3587C127.734 14.4547 127.731 14.5524 127.728 14.6463C127.725 14.7153 127.721 14.7878 127.714 14.8633L127.699 14.977H123.484C123.32 14.977 123.177 15.0343 123.06 15.1465C122.936 15.2599 122.874 15.4109 122.874 15.5929C122.874 15.7536 122.94 15.8952 123.06 16.0038C123.177 16.1107 123.319 16.1653 123.484 16.1653H127.544C127.492 16.3954 127.43 16.6258 127.355 16.8666C127.335 16.925 127.316 16.9799 127.29 17.0455C127.269 17.0959 127.249 17.1446 127.224 17.2024C127.202 17.2479 127.18 17.2904 127.156 17.3349C127.152 17.3426 127.136 17.3652 127.115 17.3954H121.938C121.624 17.3969 121.369 17.654 121.369 17.9691C121.369 18.2859 121.626 18.5434 121.943 18.5434H123.775L123.327 21.2718C123.3 21.4339 123.338 21.5963 123.433 21.7297C123.53 21.8646 123.675 21.9546 123.842 21.9816C123.875 21.9871 123.908 21.9897 123.941 21.9897C124.237 21.9897 124.5 21.7746 124.551 21.4727L125.022 18.5434H127.061V21.4172C127.061 21.758 127.339 22.0351 127.681 22.0351C128.022 22.0351 128.298 21.758 128.298 21.4172V18.5434H130.188C130.504 18.5434 130.761 18.2859 130.761 17.9691C130.761 17.654 130.505 17.3969 130.191 17.3954Z" fill="black"/>
</svg>
