<svg width="32" height="32" viewBox="0 0 32 32" fill="none" xmlns="http://www.w3.org/2000/svg">
<g clip-path="url(#clip0_1180_48750)">
<path d="M9.4327 16.9792C7.99151 12.9909 11.4258 8.92262 15.5994 9.67393C19.7731 10.4253 21.5844 15.4379 18.8518 18.6749C16.1193 21.9119 10.8739 20.9676 9.4327 16.9793V16.9792ZM14.1579 0.499057C4.56782 0.761119 -2.57161 10.5006 0.88476 20.0659C4.28045 29.4634 15.6526 32.4662 23.2106 26.9678L28.5656 31.5049L32 27.3366L26.9299 23.0373C34.2361 11.3282 24.6582 0.253744 14.1579 0.499057ZM14.3348 6.03731C14.9506 6.02043 15.5833 6.06656 16.2261 6.18231C23.083 7.41668 26.059 15.6523 21.5698 20.9704C17.0805 26.2884 8.46251 24.7372 6.09476 18.1847C3.94913 12.2466 8.3812 6.19993 14.3348 6.03724V6.03731Z" fill="black"/>
</g>
<defs>
<clipPath id="clip0_1180_48750">
<rect width="32" height="32" fill="white"/>
</clipPath>
</defs>
</svg>
