<svg width="40" height="40" viewBox="0 0 40 40" fill="none" xmlns="http://www.w3.org/2000/svg">
<circle cx="20" cy="20" r="19.5" stroke="white"/>
<g clip-path="url(#clip0_3064_9914)">
<path d="M18.8521 26.5113C18.8521 27.873 17.7604 28.9869 16.426 28.9869C15.0917 28.9869 14 27.873 14 26.5113V13.499C14 12.1373 15.0917 11.0234 16.426 11.0234C17.7604 11.0234 18.8521 12.1373 18.8521 13.499V26.5113Z" fill="white"/>
<path d="M17.7686 28.6224C16.6343 29.3466 15.1256 28.9997 14.4155 27.8517C13.7053 26.7032 14.0528 25.1711 15.1872 24.4469L25.2784 18.0015C26.4128 17.2772 27.9214 17.6242 28.6316 18.7721C29.3417 19.9207 28.9943 21.4528 27.8599 22.177L17.7686 28.6224Z" fill="white"/>
<path d="M17.7687 11.3784C16.6343 10.6542 15.125 11.0011 14.4155 12.1491C13.7054 13.2977 14.0528 14.8297 15.1866 15.5539L25.276 21.9975C26.4104 22.7217 27.919 22.3748 28.6292 21.2268C29.3393 20.0782 28.9918 18.5462 27.8575 17.822L17.7687 11.3784Z" fill="white"/>
</g>
<defs>
<clipPath id="clip0_3064_9914">
<rect width="15" height="18" fill="white" transform="translate(14 11)"/>
</clipPath>
</defs>
</svg>
