<svg width="40" height="40" viewBox="0 0 40 40" fill="none" xmlns="http://www.w3.org/2000/svg">
<circle cx="20" cy="20" r="19.5" stroke="white"/>
<path d="M28.6231 15.8828C28.5212 15.5194 28.3227 15.1905 28.0487 14.9309C27.7669 14.6633 27.4216 14.4719 27.0453 14.3747C25.637 14.0037 19.9948 14.0037 19.9948 14.0037C17.6426 13.977 15.291 14.0946 12.9532 14.356C12.5769 14.4603 12.2322 14.656 11.9498 14.9256C11.6724 15.1925 11.4714 15.5215 11.3664 15.8821C11.1142 17.24 10.9917 18.6189 11.0005 20C10.9915 21.3799 11.1137 22.7583 11.3664 24.1179C11.4691 24.477 11.6694 24.8045 11.9476 25.0691C12.2258 25.3337 12.5723 25.5248 12.9532 25.626C14.3803 25.9963 19.9948 25.9963 19.9948 25.9963C22.3499 26.0231 24.7045 25.9054 27.0453 25.644C27.4216 25.5468 27.7669 25.3554 28.0487 25.0878C28.3226 24.8283 28.5209 24.4993 28.6223 24.1359C28.8811 22.7785 29.007 21.3991 28.998 20.0172C29.0175 18.6295 28.8918 17.2436 28.6231 15.8821V15.8828ZM18.201 22.5664V17.4343L22.8954 20.0007L18.201 22.5664Z" fill="white"/>
</svg>
