<svg width="24" height="24" viewBox="0 0 24 24" fill="none" xmlns="http://www.w3.org/2000/svg">
<path fill-rule="evenodd" clip-rule="evenodd" d="M11.5158 3.00267C10.1606 3.07179 9.01268 3.29698 7.87919 3.71608C7.01166 4.03684 6.29448 4.40515 5.55814 4.90805C3.5591 6.27332 2.30132 8.20971 2.04848 10.3113C1.79158 12.4465 2.56215 14.5499 4.20716 16.2037C4.85875 16.8587 5.5793 17.3941 6.44992 17.8702L6.6864 17.9995L6.66453 18.0764C6.23657 19.5813 5.68466 21.6112 5.67089 21.7309C5.65813 21.8418 5.69968 21.9386 5.77799 21.9802C5.83177 22.0089 5.94602 22.006 6.03288 21.9739C6.3211 21.8673 7.74094 20.9036 9.80676 19.4124L10.2259 19.1099L10.426 19.136C10.9843 19.2087 11.3367 19.2297 11.9968 19.2296C12.5583 19.2295 12.7549 19.2214 13.1871 19.1803C15.7702 18.9346 18.1396 17.8704 19.7866 16.2161C20.9869 15.0105 21.7391 13.548 21.945 12.0196C21.9904 11.6825 22 11.5245 22 11.1159C22 10.7073 21.9904 10.5494 21.945 10.2122C21.5816 7.51387 19.5424 5.12165 16.5477 3.88063C15.3739 3.39416 14.2106 3.12591 12.8144 3.01969C12.6482 3.00705 11.679 2.99434 11.5158 3.00267Z" fill="#361D1E"/>
<path d="M8.41018 9.01316C8.68581 9.07313 8.87426 9.35522 8.82775 9.63823C8.78992 9.8684 8.62587 10.0477 8.41018 10.0947C8.37235 10.1029 8.18647 10.1077 7.90487 10.1077H7.45939V11.8137C7.45939 13.6767 7.46246 13.5861 7.39502 13.7153C7.33241 13.8354 7.23843 13.9184 7.10369 13.9727C7.04828 13.995 7.01434 14 6.91737 14C6.82041 14 6.78646 13.995 6.73105 13.9727C6.59536 13.918 6.49381 13.8276 6.43637 13.7103C6.37265 13.5803 6.37536 13.6645 6.37536 11.8137V10.1077H5.92988C5.64922 10.1077 5.46227 10.1029 5.42456 10.0947C5.14988 10.0351 4.96062 9.75178 5.007 9.46958C5.04386 9.24526 5.19943 9.0697 5.40818 9.01687C5.48705 8.99691 8.31939 8.99341 8.41018 9.01316Z" fill="#DCD044"/>
<path fill-rule="evenodd" clip-rule="evenodd" d="M10.2542 9.01775C10.2976 9.02722 10.3815 9.05982 10.4405 9.09019C10.531 9.13678 10.5637 9.16214 10.6497 9.25246C10.7212 9.3275 10.7639 9.38416 10.7926 9.44198C10.8439 9.54533 12.1475 13.1256 12.1718 13.23C12.2206 13.4391 12.2247 13.6139 12.1833 13.7308C12.1508 13.8226 12.0684 13.9018 11.9649 13.9407C11.8549 13.982 11.7796 13.9959 11.6669 13.9957C11.4704 13.9953 11.3038 13.919 11.2453 13.8027C11.2352 13.7826 11.1655 13.5991 11.0904 13.395L10.9539 13.0238H10.1243H9.29473L9.15821 13.395C9.08313 13.5991 9.01343 13.7826 9.00333 13.8027C8.94484 13.919 8.77817 13.9953 8.58165 13.9957C8.46898 13.9959 8.39368 13.982 8.2837 13.9407C8.17705 13.9007 8.09765 13.8228 8.06351 13.7249C8.03042 13.63 8.03287 13.4053 8.06857 13.2595C8.10021 13.1302 9.39852 9.55783 9.45597 9.44198C9.48466 9.38414 9.52733 9.32752 9.59885 9.25246C9.68482 9.16223 9.71769 9.13672 9.80812 9.09011C9.97419 9.00451 10.0997 8.98414 10.2542 9.01775ZM9.58416 12.006C9.58623 12.0002 9.70719 11.6423 9.85296 11.2106C9.99873 10.779 10.1208 10.4258 10.1243 10.4258C10.1278 10.4258 10.2499 10.7791 10.3957 11.2108C10.5414 11.6426 10.6624 12.0005 10.6644 12.0062C10.6665 12.0119 10.429 12.0164 10.1243 12.0164C9.81146 12.0164 9.582 12.012 9.58416 12.006Z" fill="#DCD044"/>
<path d="M13.1518 9.0121C13.3658 9.05417 13.5457 9.23713 13.5897 9.45728C13.5985 9.50118 13.6022 10.0199 13.6022 11.204V12.8883H14.1992C14.5513 12.8883 14.821 12.8932 14.8569 12.9002C15.0028 12.9286 15.1583 13.0498 15.221 13.1841C15.3573 13.4758 15.1994 13.8194 14.8904 13.9036C14.8232 13.9219 14.7279 13.9239 13.8924 13.9245C12.8644 13.9253 12.8737 13.9259 12.7479 13.8471C12.6642 13.7948 12.6116 13.7415 12.5663 13.6631C12.4914 13.5336 12.4956 13.6641 12.4956 11.4902C12.4956 10.0972 12.4993 9.50143 12.5081 9.45728C12.5469 9.26334 12.682 9.10328 12.8626 9.03742C12.9686 8.99876 13.0484 8.99177 13.1518 9.0121Z" fill="#DCD044"/>
<path d="M16.1339 9.01316C16.3575 9.06181 16.5308 9.25774 16.5603 9.49513C16.5664 9.54366 16.5715 9.85095 16.5717 10.178L16.572 10.7727L17.3483 9.96468C18.246 9.03042 18.1773 9.0885 18.385 9.0885C18.5074 9.0885 18.5115 9.08938 18.5995 9.13475C18.7181 9.19588 18.8009 9.28223 18.8595 9.406C18.903 9.49786 18.9038 9.5021 18.9038 9.62987C18.9038 9.84421 18.9424 9.7926 18.2007 10.569C17.7479 11.043 17.5657 11.2411 17.5721 11.2524C17.5771 11.2611 17.8785 11.6792 18.2419 12.1814C18.6052 12.6836 18.9143 13.1157 18.9287 13.1416C19.1056 13.4609 18.9384 13.8707 18.5918 13.967C18.4266 14.0128 18.2267 13.9613 18.101 13.8404C18.0737 13.8141 17.7603 13.3904 17.4048 12.8988L16.7583 12.0051L16.6658 12.1011L16.5734 12.1971L16.5695 12.8638C16.5658 13.5057 16.5648 13.5332 16.5418 13.6041C16.426 13.9612 16.0309 14.1069 15.7296 13.9037C15.6177 13.8283 15.5396 13.7145 15.5053 13.5772C15.4901 13.5162 15.488 13.2657 15.488 11.498C15.488 9.72742 15.49 9.47988 15.5053 9.41859C15.5752 9.13866 15.8616 8.95391 16.1339 9.01316Z" fill="#DCD044"/>
</svg>
