<svg width="184" height="66" viewBox="0 0 184 66" fill="none" xmlns="http://www.w3.org/2000/svg">
<g clip-path="url(#clip0_612_1825)">
<path d="M106.13 0.246826H0.242432V49.4622H106.13V0.246826Z" stroke="white" stroke-width="0.8504"/>
<path d="M183.758 0.246826H132.466V49.4622H183.758V0.246826Z" stroke="white" stroke-width="0.8504"/>
<path d="M16.2721 15.7358V23.6318H22.0965V15.7358H24.4025V34.2365H22.0965V25.5217H16.2721V34.2365H13.9661V15.7358H16.2721Z" fill="white"/>
<path d="M39.1692 15.7358L42.5803 23.8337L45.8787 15.7358H48.2694L43.708 26.391V34.2309H41.4076V26.3966L36.7898 15.7414H39.1692V15.7358Z" fill="white"/>
<path d="M89.9081 15.7358L95.022 29.3688H95.0784V15.7358H97.3224V34.2365H94.8134L88.662 18.1473H88.6056V34.2365H86.356V15.7358H89.9081Z" fill="white"/>
<path d="M145.919 17.2724H145.975L148.174 27.0639H143.726L145.919 17.2724ZM144.351 15.7358L139.914 34.2197H142.226L143.404 28.9706H148.496L149.674 34.2253H151.986L147.582 15.7414H144.351V15.7358Z" fill="white"/>
<path d="M170.107 15.7358V34.2365H167.88V15.7358H170.107Z" fill="white"/>
<path d="M66.0922 34.3935C62.5175 34.3935 60.8711 32.0886 60.8711 29.1164V15.7302H63.1772V29.1108C63.1772 30.9839 63.7523 32.5933 66.0922 32.5933H66.0978C68.4377 32.5933 69.0128 30.9782 69.0128 29.1108V15.7302H71.3189V29.1108C71.3189 32.083 69.6725 34.3879 66.0978 34.3879H66.0922V34.3935Z" fill="white"/>
<path d="M118.077 17.6033H116.921V32.3466H118.077C121.206 32.3466 123.022 31.3147 123.022 24.9889C123.027 18.6576 121.212 17.6033 118.077 17.6033Z" fill="white"/>
<path d="M105.977 0V49.6921H132.607V0H105.977ZM118.568 34.2366H114.677V15.7359H118.568C122.746 15.7359 125.272 17.8894 125.272 24.9834C125.272 32.0831 122.746 34.2366 118.568 34.2366Z" fill="white"/>
<path d="M54.855 57.3525V58.1433H51.5735V61.093H53.9923V61.8838H51.5735V65.2149H55.0072V66.0056H50.5586V57.3581H54.855V57.3525Z" fill="white"/>
<path d="M143.833 57.3525V58.1433H140.551V61.093H142.97V61.8838H140.551V65.2149H143.985V66.0056H139.536V57.3581H143.833V57.3525Z" fill="white"/>
<path d="M84.8958 57.9975H84.924L85.9671 62.6464H83.8584L84.8958 57.9975ZM84.2079 57.3525L82.1387 66H83.1536L83.7118 63.4372H86.108L86.6662 66H87.6811L85.6119 57.3525H84.2079Z" fill="white"/>
<path d="M121.46 57.9975H121.488L122.531 62.6464H120.423L121.46 57.9975ZM120.772 57.3525L118.703 66H119.718L120.276 63.4372H122.672L123.23 66H124.245L122.176 57.3525H120.772Z" fill="white"/>
<path d="M41.0242 58.1433H41.9094C43.3641 58.1433 43.8377 58.6704 43.8377 59.6406C43.8377 60.6108 43.3697 61.1379 41.9094 61.1379H41.0242V58.1433ZM40.0093 66H41.0242V61.9511L42.3492 61.9006L43.8602 66H44.9259L43.3415 61.7099C44.3846 61.3734 44.8526 60.5603 44.8526 59.5901C44.8526 58.1657 43.7869 57.3525 42.2759 57.3525H40.0149V66H40.0093Z" fill="white"/>
<path d="M130.707 58.1433H131.592C133.052 58.1433 133.52 58.6704 133.52 59.6406C133.52 60.6108 133.052 61.1379 131.592 61.1379H130.707V58.1433ZM129.698 66H130.712V61.9511L132.037 61.9006L133.548 66H134.614L133.03 61.7099C134.073 61.3734 134.541 60.5603 134.541 59.5901C134.541 58.1657 133.475 57.3525 131.964 57.3525H129.703V66H129.698Z" fill="white"/>
<path d="M62.5343 57.3525L64.9532 63.7232H64.9814V57.3525H65.9963V66H64.9024L61.9874 58.4741H61.9592V66H60.9443V57.3525H62.5343Z" fill="white"/>
<path d="M76.5004 57.3525V58.1433H74.5721V66.0056H73.5572V58.1433H71.6345V57.3525H76.5004Z" fill="white"/>
<path d="M93.5505 66L93.5562 65.2093V57.3469H94.5711V65.2093H98.1852V66H93.5505Z" fill="white"/>
<path d="M113.86 65.5401C113.307 65.8262 112.726 65.9663 112.117 65.9663C111.142 65.9663 110.386 65.6018 109.862 64.8784C109.338 64.155 109.078 63.0783 109.078 61.6594C109.078 60.9697 109.152 60.3472 109.293 59.792C109.439 59.2368 109.642 58.7601 109.913 58.3732C110.183 57.9862 110.505 57.6834 110.888 57.4759C111.272 57.2628 111.695 57.1619 112.168 57.1619C112.49 57.1619 112.788 57.1955 113.065 57.2628C113.341 57.3301 113.606 57.4367 113.86 57.5769V58.7265C113.612 58.5582 113.352 58.4237 113.082 58.3339C112.811 58.2442 112.518 58.1993 112.202 58.1993C111.875 58.1993 111.582 58.2722 111.322 58.4293C111.057 58.5807 110.838 58.7994 110.651 59.0854C110.465 59.3714 110.324 59.7247 110.229 60.1397C110.127 60.5547 110.082 61.0257 110.082 61.5585C110.082 62.6745 110.262 63.5157 110.629 64.0765C110.99 64.6429 111.525 64.9233 112.225 64.9233C112.523 64.9233 112.805 64.8784 113.076 64.7943C113.347 64.7102 113.612 64.5868 113.86 64.4354V65.5401Z" fill="white"/>
</g>
<defs>
<clipPath id="clip0_612_1825">
<rect width="184" height="66" fill="white"/>
</clipPath>
</defs>
</svg>
