<svg width="32" height="32" viewBox="0 0 32 32" fill="none" xmlns="http://www.w3.org/2000/svg">
<path d="M23.375 10.75C25.5151 10.75 27.25 9.0151 27.25 6.875C27.25 4.7349 25.5151 3 23.375 3C21.2349 3 19.5 4.7349 19.5 6.875C19.5 9.0151 21.2349 10.75 23.375 10.75Z" stroke="black" stroke-width="2" stroke-linecap="round" stroke-linejoin="round"/>
<path d="M7.875 19.7917C10.0151 19.7917 11.75 18.0569 11.75 15.9167C11.75 13.7766 10.0151 12.0417 7.875 12.0417C5.7349 12.0417 4 13.7766 4 15.9167C4 18.0569 5.7349 19.7917 7.875 19.7917Z" stroke="black" stroke-width="2" stroke-linecap="round" stroke-linejoin="round"/>
<path d="M23.375 28.8335C25.5151 28.8335 27.25 27.0986 27.25 24.9585C27.25 22.8184 25.5151 21.0835 23.375 21.0835C21.2349 21.0835 19.5 22.8184 19.5 24.9585C19.5 27.0986 21.2349 28.8335 23.375 28.8335Z" stroke="black" stroke-width="2" stroke-linecap="round" stroke-linejoin="round"/>
<path d="M11.2207 17.8672L20.0428 23.008" stroke="black" stroke-width="2" stroke-linecap="round" stroke-linejoin="round"/>
<path d="M20.0299 8.82544L11.2207 13.9663" stroke="black" stroke-width="2" stroke-linecap="round" stroke-linejoin="round"/>
</svg>
